/* XPM */
static char * spec_wnd_del_xpm[] = {
"16 16 68 1",
" 	c None",
".	c #C84E4E",
"+	c #CF5959",
"@	c #DF6F6F",
"#	c #D86060",
"$	c #C94E4E",
"%	c #C84D4D",
"&	c #CD3131",
"*	c #CE2424",
"=	c #C94141",
"-	c #E07070",
";	c #E26B6B",
">	c #E06161",
",	c #D85353",
"'	c #CE2E2E",
")	c #CF1E1E",
"!	c #CC1E1E",
"~	c #CA2323",
"{	c #DA6262",
"]	c #DF5656",
"^	c #DD4A4A",
"/	c #D54343",
"(	c #CA1F1F",
"_	c #C82F2F",
":	c #C94F4F",
"<	c #D95454",
"[	c #DB3E3E",
"}	c #D93333",
"|	c #D23636",
"1	c #C82C2C",
"2	c #C84C4C",
"3	c #D64242",
"4	c #D72A2A",
"5	c #D52222",
"6	c #CF2E2E",
"7	c #C94D4D",
"8	c #D33434",
"9	c #D31E1E",
"0	c #D11E1E",
"a	c #C82D2D",
"b	c #D02C2C",
"c	c #C82222",
"d	c #C63232",
"e	c #C52525",
"f	c #C32929",
"g	c #C33636",
"h	c #C63030",
"i	c #C12C2C",
"j	c #C02F2F",
"k	c #C23A3A",
"l	c #C33434",
"m	c #BF3131",
"n	c #BE3333",
"o	c #C13B3B",
"p	c #CE2F2F",
"q	c #C13838",
"r	c #BE3232",
"s	c #C13030",
"t	c #C53838",
"u	c #CE2222",
"v	c #C03939",
"w	c #C42C2C",
"x	c #C92B2B",
"y	c #C93F3F",
"z	c #CA2121",
"A	c #C53636",
"B	c #C92929",
"C	c #CA3F3F",
"  ..        ..  ",
" +@#$      %&*=.",
".-;>,.    %')!~.",
".{>]^/%  %')!(_.",
" :<^[}|%%')!(12 ",
"  $3}456')!(1%  ",
"   78590)!(a%   ",
"    2b0)!(a%    ",
"    %')!(cd%    ",
"   %')!(cefg%   ",
"  %')!(ahfijk%  ",
" %')!(a%%ljmno% ",
".p)!(1%  %qnrst.",
".u!(1%    %vswx.",
".yza2      %ABC.",
" ...        ... "};
