/* XPM */
static char * spec_autoscale_xpm[] = {
"16 16 79 1",
" 	c None",
".	c #686D73",
"+	c #8B97A2",
"@	c #9CA6AF",
"#	c #848D95",
"$	c #6C6C6E",
"%	c #8095AD",
"&	c #ACCDEE",
"*	c #E5F5FF",
"=	c #E7F6FF",
"-	c #E0EFFB",
";	c #BCCEDE",
">	c #7B7E84",
",	c #7E8E9B",
"'	c #72B6FB",
")	c #C9E7FF",
"!	c #F3FAFF",
"~	c #E7F4FF",
"{	c #DFEFFF",
"]	c #D7F2FF",
"^	c #A4C7E9",
"/	c #676C6E",
"(	c #66625C",
"_	c #80AAD6",
":	c #D3E8FF",
"<	c #CFE5FF",
"[	c #ADD3FF",
"}	c #A0CCFF",
"|	c #AED5FF",
"1	c #B1DBFF",
"2	c #8395A5",
"3	c #53514E",
"4	c #85BFFB",
"5	c #AAD2FF",
"6	c #C0DDFF",
"7	c #D1E6FF",
"8	c #D6E9FF",
"9	c #D3EDFF",
"0	c #89AAD0",
"a	c #686360",
"b	c #5B5A5A",
"c	c #8EC5FD",
"d	c #E9F4FF",
"e	c #E0EEFF",
"f	c #D8E9FF",
"g	c #D4E8FF",
"h	c #C6E7FF",
"i	c #85AAD2",
"j	c #4E4944",
"k	c #9FBFE1",
"l	c #EBF4FF",
"m	c #E3EFFF",
"n	c #D8EAFF",
"o	c #7E91A5",
"p	c #6E7478",
"q	c #9CC9F5",
"r	c #474647",
"s	c #4C4846",
"t	c #B6BDC4",
"u	c #5A5D60",
"v	c #A6A4AA",
"w	c #4D4A46",
"x	c #7A828A",
"y	c #5A5957",
"z	c #B4B3B9",
"A	c #807F80",
"B	c #72716F",
"C	c #71716F",
"D	c #AFACB4",
"E	c #DFDDDF",
"F	c #111111",
"G	c #A4A1A7",
"H	c #E5E3E5",
"I	c #343434",
"J	c #9E9BA0",
"K	c #E7E5E7",
"L	c #5A5A59",
"M	c #A5A2A7",
"N	c #7A7979",
"       .+@#$    ",
"      %&*=-;>   ",
"     ,')!~{]^/  ",
"    (_ :<[}|12  ",
"    34  567890a ",
"    bc  defghij ",
"     k  lmng o  ",
"     p      qr  ",
"     st     u   ",
"     vwx   y    ",
"    zA  BCB     ",
"   DEF          ",
"  GHI           ",
" JKL            ",
" MN             ",
"                "};
