/* XPM */
static char * spec_wnd_rename_xpm[] = {
"16 16 56 1",
" 	c None",
".	c #C39200",
"+	c #C19100",
"@	c #C69500",
"#	c #CC9900",
"$	c #C99700",
"%	c #E9D28C",
"&	c #EFDFA9",
"*	c #BD8E00",
"=	c #C29100",
"-	c #896700",
";	c #DFBF51",
">	c #D2A61B",
",	c #E2C664",
"'	c #A77D00",
")	c #C49300",
"!	c #CBA01A",
"~	c #FCF9BF",
"{	c #CF9F0D",
"]	c #4D3A00",
"^	c #AD8200",
"/	c #B28600",
"(	c #F2E686",
"_	c #FFFFB3",
":	c #E6CC5A",
"<	c #836200",
"[	c #AE8300",
"}	c #936E00",
"|	c #ECD960",
"1	c #F5EC7C",
"2	c #B28500",
"3	c #C19509",
"4	c #F5E97A",
"5	c #DFBD37",
"6	c #433200",
"7	c #A17900",
"8	c #E9CD50",
"9	c #FFF58F",
"0	c #E6C748",
"a	c #826200",
"b	c #D6A819",
"c	c #FFEB85",
"d	c #F5DC6C",
"e	c #BB8C00",
"f	c #F2D25F",
"g	c #FFE680",
"h	c #D9AA1E",
"i	c #FFDE78",
"j	c #E6BC3C",
"k	c #DFB02A",
"l	c #DCAC23",
"m	c #9E7700",
"n	c #513D00",
"o	c #C59400",
"p	c #664C00",
"q	c #000000",
"          .+    ",
"       @#$%&*   ",
"       =-;>,'   ",
"      )-!~~{]   ",
"     ^/^(_:<    ",
"     [}#|12     ",
"      345#6     ",
"     7890a      ",
"     bcd2       ",
"    efgb6       ",
"    hija        ",
"    klm         ",
"   nop          ",
"   qq           ",
"                ",
"                "};
