/* XPM */
static char * spec_zoom_in_xpm[] = {
"16 16 161 2",
"  	c None",
". 	c #4CB547",
"+ 	c #21801A",
"@ 	c #4E7A54",
"# 	c #7D9791",
"$ 	c #92A5A4",
"% 	c #7B9389",
"& 	c #AAAAAB",
"* 	c #327F2B",
"= 	c #7A9A9F",
"- 	c #98CDC5",
"; 	c #D3F0E6",
"> 	c #D8F2E8",
", 	c #C5E4DC",
"' 	c #C2D2E1",
") 	c #96989D",
"! 	c #E4E4E3",
"~ 	c #D8D6D5",
"{ 	c #6E9086",
"] 	c #61BFA0",
"^ 	c #A8E0C5",
"/ 	c #DBF4E0",
"( 	c #D2F0DF",
"_ 	c #B5DECD",
": 	c #E1F5FF",
"< 	c #B7D2ED",
"[ 	c #9DA0A1",
"} 	c #AAA8A5",
"| 	c #5DA597",
"1 	c #5FC58C",
"2 	c #B1E2C8",
"3 	c #AFE1C6",
"4 	c #9DD9BF",
"5 	c #61B795",
"6 	c #CDE5FF",
"7 	c #CDE8FF",
"8 	c #A0AEBA",
"9 	c #D0CECD",
"0 	c #9F9D9C",
"a 	c #51AF92",
"b 	c #64C788",
"c 	c #80D29D",
"d 	c #93D9AB",
"e 	c #B1E2C9",
"f 	c #8FCDAC",
"g 	c #E2EFFF",
"h 	c #E0F2FF",
"i 	c #A7C0DC",
"j 	c #B3B0AF",
"k 	c #0C9A05",
"l 	c #397536",
"m 	c #52B18A",
"n 	c #70D082",
"o 	c #90D9A1",
"p 	c #C8EFCA",
"q 	c #CBEDD3",
"r 	c #89CC9D",
"s 	c #8ACCA2",
"t 	c #7CCA9B",
"u 	c #62A695",
"v 	c #327527",
"w 	c #51BD49",
"x 	c #53CD34",
"y 	c #54CE35",
"z 	c #5FD33F",
"A 	c #61974D",
"B 	c #93CBB0",
"C 	c #79D876",
"D 	c #8EDB96",
"E 	c #C3EFBE",
"F 	c #C3EDC2",
"G 	c #BFEAC4",
"H 	c #B9E8C1",
"I 	c #98E0AB",
"J 	c #7CA58E",
"K 	c #599B41",
"L 	c #13A608",
"M 	c #5DD13D",
"N 	c #58D331",
"O 	c #5EBD3D",
"P 	c #759770",
"Q 	c #96E296",
"R 	c #9BE884",
"S 	c #9DE594",
"T 	c #B1EBA4",
"U 	c #A5E79C",
"V 	c #87DF83",
"W 	c #7FCF99",
"X 	c #47733A",
"Y 	c #70C25C",
"Z 	c #6AD749",
"` 	c #59D533",
" .	c #6FDC49",
"..	c #85E361",
"+.	c #688658",
"@.	c #AACFA4",
"#.	c #9DE688",
"$.	c #94E579",
"%.	c #99E388",
"&.	c #89DE79",
"*.	c #76D370",
"=.	c #537B4D",
"-.	c #359120",
";.	c #6BCB5D",
">.	c #86E166",
",.	c #8EE46C",
"'.	c #9EE981",
").	c #9FCF8A",
"!.	c #A6A7A9",
"~.	c #53564B",
"{.	c #7E9982",
"].	c #71B357",
"^.	c #89B876",
"/.	c #8DB389",
"(.	c #667360",
"_.	c #6CA65E",
":.	c #80D071",
"<.	c #8DD788",
"[.	c #0E9E06",
"}.	c #21901B",
"|.	c #B0B3B5",
"1.	c #7F7F7F",
"2.	c #649750",
"3.	c #76BE5A",
"4.	c #6E975E",
"5.	c #7F9B75",
"6.	c #4F8449",
"7.	c #1C9E12",
"8.	c #13A508",
"9.	c #E7E6E7",
"0.	c #B7B4BB",
"a.	c #DFDDDF",
"b.	c #12510D",
"c.	c #82D764",
"d.	c #6BDA45",
"e.	c #4FD029",
"f.	c #8ADF72",
"g.	c #B5B3B8",
"h.	c #E5E3E5",
"i.	c #656565",
"j.	c #108B07",
"k.	c #77DD56",
"l.	c #35C512",
"m.	c #79D663",
"n.	c #B7B5B9",
"o.	c #E7E5E7",
"p.	c #6B6B6B",
"q.	c #BABABA",
"r.	c #62D442",
"s.	c #3DC124",
"t.	c #6CCE5E",
"u.	c #A5A2A7",
"v.	c #7A7979",
"w.	c #959595",
"x.	c #91DF7E",
"y.	c #85D875",
"z.	c #7AD075",
"A.	c #78CD75",
"B.	c #C5C5C5",
"C.	c #979797",
"D.	c #E5E5E5",
"          . + @ # $ % &         ",
"          * = - ; > , ' ) !     ",
"        ~ { ] ^ / ( _ : < [     ",
"        } | 1 2 3 4 5 6 7 8 9   ",
"        0 a b c d e f g h i j   ",
". k k k l m n o p q r s t u v w ",
"k x y z A B C D E F G H I J K L ",
"k M z N O P Q R S T U V W X Y L ",
"k Z `  ...+.@.#.$.%.&.*.=.-.;.L ",
"k >.,.'.).!.~.{.].^./.(._.:.<.L ",
". [.[.}.|.1.2.3.4.5.6.7.8.L L w ",
"    9.0.a.b.c.d.e.f.L           ",
"    g.h.i.j.k.e.l.m.L           ",
"  n.o.p.q.8.r.l.s.t.L           ",
"  u.v.w.  L x.y.z.A.L           ",
"  B.C.D.  w L L L L w           "};
