/* XPM */
static char * spec_zoom_out_xpm[] = {
"16 16 148 2",
"  	c None",
". 	c #C5C4C3",
"+ 	c #93979B",
"@ 	c #98A2AC",
"# 	c #A3ACB4",
"$ 	c #979EA5",
"% 	c #AAAAAB",
"& 	c #EDECEC",
"* 	c #B9B7B6",
"= 	c #8EA1B6",
"- 	c #BED8F2",
"; 	c #E8F6FF",
"> 	c #EAF7FF",
", 	c #E4F1FC",
"' 	c #C2D2E1",
") 	c #96989D",
"! 	c #E4E4E3",
"~ 	c #D8D6D5",
"{ 	c #909EA9",
"] 	c #B1D7FD",
"^ 	c #D9EEFF",
"/ 	c #F5FBFF",
"( 	c #EBF6FF",
"_ 	c #E5F2FF",
": 	c #E1F5FF",
"< 	c #B7D2ED",
"[ 	c #9DA0A1",
"} 	c #AAA8A5",
"| 	c #A6C4E2",
"1 	c #C0E1FF",
"2 	c #DEEEFF",
"3 	c #DDEDFF",
"4 	c #CEE5FF",
"5 	c #C8E2FF",
"6 	c #CDE5FF",
"7 	c #CDE8FF",
"8 	c #A0AEBA",
"9 	c #D0CECD",
"0 	c #9F9D9C",
"a 	c #B9DAFD",
"b 	c #C6E2FF",
"c 	c #CFE6FF",
"d 	c #D4E8FF",
"e 	c #D9EBFF",
"f 	c #E0EEFF",
"g 	c #E2EFFF",
"h 	c #E0F2FF",
"i 	c #A7C0DC",
"j 	c #B3B0AF",
"k 	c #465F9E",
"l 	c #04267C",
"m 	c #364469",
"n 	c #4E7BC1",
"o 	c #1B499E",
"p 	c #4C70B5",
"q 	c #96AAD0",
"r 	c #8DA3CE",
"s 	c #859DCD",
"t 	c #87A0CF",
"u 	c #799ACC",
"v 	c #5F83B9",
"w 	c #2C3C64",
"x 	c #4764A6",
"y 	c #2961A7",
"z 	c #2962A9",
"A 	c #2967B3",
"B 	c #3D618A",
"C 	c #74A7DC",
"D 	c #4190E0",
"E 	c #5AA2E7",
"F 	c #9FC8F0",
"G 	c #9DC9F1",
"H 	c #93C4F0",
"I 	c #8FC0F0",
"J 	c #68AEEA",
"K 	c #678AAF",
"L 	c #29588E",
"M 	c #062D86",
"N 	c #2A66B0",
"O 	c #2565AD",
"P 	c #2264A8",
"Q 	c #597996",
"R 	c #55A1E5",
"S 	c #4395E1",
"T 	c #529EE5",
"U 	c #73B3E9",
"V 	c #6CACE7",
"W 	c #4F97DB",
"X 	c #639CD6",
"Y 	c #384C66",
"Z 	c #326AB6",
"` 	c #2A70BE",
" .	c #2566AF",
"..	c #2675C6",
"+.	c #2B85D9",
"@.	c #456381",
"#.	c #84ACCF",
"$.	c #529CE1",
"%.	c #4594DE",
"&.	c #5DA0DF",
"*.	c #5994D2",
"=.	c #5489C3",
"-.	c #475B72",
";.	c #194075",
">.	c #3965B7",
",.	c #3283D6",
"'.	c #358AD9",
").	c #4695DE",
"!.	c #5D96C9",
"~.	c #A3A4AC",
"{.	c #4E5052",
"].	c #6D869E",
"^.	c #4478AD",
"/.	c #5A84AF",
"(.	c #6588AF",
"_.	c #58626F",
":.	c #36619B",
"<.	c #4275C2",
"[.	c #5678C6",
"}.	c #05277F",
"|.	c #1A3379",
"1.	c #B0B0B8",
"2.	c #7F7E80",
"3.	c #031A53",
"4.	c #1C3475",
"5.	c #4A5675",
"6.	c #495675",
"7.	c #4B5877",
"8.	c #103381",
"9.	c #062D85",
"0.	c #E7E6E7",
"a.	c #B7B4BB",
"b.	c #DFDDDF",
"c.	c #787878",
"d.	c #B5B3B8",
"e.	c #E5E3E5",
"f.	c #656565",
"g.	c #D6D6D6",
"h.	c #B7B5B9",
"i.	c #E7E5E7",
"j.	c #6B6B6B",
"k.	c #BABABA",
"l.	c #A5A2A7",
"m.	c #7A7979",
"n.	c #959595",
"o.	c #C5C5C5",
"p.	c #979797",
"q.	c #E5E5E5",
"            . + @ # $ % &       ",
"          * = - ; > , ' ) !     ",
"        ~ { ] ^ / ( _ : < [     ",
"        } | 1 2 3 4 5 6 7 8 9   ",
"        0 a b c d e f g h i j   ",
"k l l l m n o p q r s t u v w x ",
"l y z A B C D E F G H I J K L M ",
"l N A O P Q R S T U V W X Y Z M ",
"l `  ...+.@.#.$.%.&.*.=.-.;.>.M ",
"l ,.'.).!.~.{.].^./.(._.:.<.[.M ",
"k }.}.|.1.2.3.4.5.6.7.8.9.M M x ",
"    0.a.b.c.                    ",
"    d.e.f.g.                    ",
"  h.i.j.k.                      ",
"  l.m.n.                        ",
"  o.p.q.                        "};
