/* XPM */
static char * spec_wnd_add_xpm[] = {
"16 16 78 1",
" 	c None",
".	c #0C9A05",
"+	c #45C629",
"@	c #51CC32",
"#	c #59D13A",
"$	c #70D94E",
"%	c #4CCA2F",
"&	c #58D039",
"*	c #4ACE24",
"=	c #6BDA45",
"-	c #57CF38",
";	c #4DCF26",
">	c #61D73A",
",	c #85E361",
"'	c #64D543",
")	c #65D93F",
"!	c #7BE054",
"~	c #9AE97A",
"{	c #77DD56",
"]	c #7DE058",
"^	c #8EE56C",
"/	c #A8EC89",
"(	c #0E9E06",
"_	c #13A608",
":	c #53CD34",
"<	c #54CE35",
"[	c #5FD33F",
"}	c #80DF5F",
"|	c #A1EA81",
"1	c #A4EB86",
"2	c #88E364",
"3	c #75DE4F",
"4	c #73DB52",
"5	c #5DD13D",
"6	c #58D331",
"7	c #6DDB47",
"8	c #83E25F",
"9	c #91E66F",
"0	c #9DEA7E",
"a	c #98E876",
"b	c #5FD637",
"c	c #46CD21",
"d	c #7AD764",
"e	c #6AD749",
"f	c #59D533",
"g	c #6FDC49",
"h	c #94E673",
"i	c #8CE468",
"j	c #40C91B",
"k	c #49C82C",
"l	c #6CCE5E",
"m	c #86E166",
"n	c #8EE46C",
"o	c #9EE981",
"p	c #A7EB89",
"q	c #A8EC8D",
"r	c #A1EA83",
"s	c #A0E787",
"t	c #A5E891",
"u	c #9BE487",
"v	c #90DD7D",
"w	c #84D775",
"x	c #8DD788",
"y	c #99E77A",
"z	c #7FE15B",
"A	c #68D941",
"B	c #96E47E",
"C	c #8AE46A",
"D	c #4FD029",
"E	c #8ADF72",
"F	c #35C512",
"G	c #79D663",
"H	c #62D442",
"I	c #3DC124",
"J	c #91DF7E",
"K	c #85D875",
"L	c #7AD075",
"M	c #78CD75",
"     ......     ",
"     .+@#$.     ",
"     .%&*=.     ",
"     .-;>,.     ",
"     .')!~.     ",
"......{]^/((((__",
".:<[$}]^~|1~234_",
".5[678900a23bcd_",
".efg,hahi]=6jkl_",
".mnopqri]stuvwx_",
".((((_yzAB______",
"     _C=DE_     ",
"     _{DFG_     ",
"     _HFIl_     ",
"     _JKLM_     ",
"     ______     "};
