/* XPM */
static char * spec_clear_xpm[] = {
"16 16 59 1",
" 	c None",
".	c #DE2323",
"+	c #E12626",
"@	c #DD2828",
"#	c #E22727",
"$	c #E12323",
"%	c #E01F1F",
"&	c #DE2424",
"*	c #E02424",
"=	c #D22020",
"-	c #D42727",
";	c #DE2727",
">	c #DC2020",
",	c #DF2222",
"'	c #DE1D1D",
")	c #E02626",
"!	c #D21E1E",
"~	c #D01D1D",
"{	c #CF1F1F",
"]	c #D71A1A",
"^	c #DB1B1B",
"/	c #DC1B1B",
"(	c #E12020",
"_	c #CE1717",
":	c #D41919",
"<	c #D21414",
"[	c #D41313",
"}	c #D71515",
"|	c #D91414",
"1	c #CE0E0E",
"2	c #CB0C0C",
"3	c #CC0B0B",
"4	c #D00B0B",
"5	c #C70909",
"6	c #C50707",
"7	c #C70707",
"8	c #BC0303",
"9	c #C20404",
"0	c #C30707",
"a	c #C20707",
"b	c #BD0303",
"c	c #B70303",
"d	c #C60606",
"e	c #BA0303",
"f	c #BA0101",
"g	c #BB0202",
"h	c #B40202",
"i	c #AB0202",
"j	c #AF0303",
"k	c #BB0505",
"l	c #B70202",
"m	c #AF0404",
"n	c #B00303",
"o	c #BF0505",
"p	c #B80404",
"q	c #B60404",
"r	c #BC0505",
"s	c #BE0606",
"t	c #BE0505",
"                ",
"                ",
"                ",
"   .+@    #$%   ",
"   &*=-  ;>,'   ",
"   )!~{  ]^/(   ",
"     _:<[}|     ",
"      1234      ",
"      5677      ",
"     890abc     ",
"   defg  hij0   ",
"   kel    mno   ",
"   pqr     st   ",
"                ",
"                ",
"                "};
