/* XPM */
static char * rescan_xpm[] = {
"16 16 103 2",
"  	c None",
". 	c #1C5E0A",
"+ 	c #397016",
"@ 	c #BFC451",
"# 	c #F2E96E",
"$ 	c #F9F379",
"% 	c #C9D768",
"& 	c #7FA645",
"* 	c #21620D",
"= 	c #5F8625",
"- 	c #F4E467",
"; 	c #FEEF71",
"> 	c #FAF277",
", 	c #F6F47E",
"' 	c #F0F685",
") 	c #EAF68C",
"! 	c #C3DE7D",
"~ 	c #3C7722",
"{ 	c #3C7117",
"] 	c #F7E568",
"^ 	c #C4C956",
"/ 	c #467A1E",
"( 	c #336E17",
"_ 	c #7BA445",
": 	c #DFF28D",
"< 	c #E0F799",
"[ 	c #C8E992",
"} 	c #2E6C19",
"| 	c #BABE4D",
"1 	c #9CAF43",
"2 	c #1F600B",
"3 	c #588D35",
"4 	c #DAF59C",
"5 	c #D7F7A4",
"6 	c #8ABA69",
"7 	c #417519",
"8 	c #B4BD4C",
"9 	c #699D49",
"0 	c #D4F7A8",
"a 	c #C4ECA0",
"b 	c #799832",
"c 	c #296710",
"d 	c #8FA33A",
"e 	c #7CAA52",
"f 	c #D9F7A1",
"g 	c #D5F7A7",
"h 	c #D1F7AB",
"i 	c #8DBD6E",
"j 	c #3C7218",
"k 	c #F7E164",
"l 	c #FFEB6C",
"m 	c #8EA73E",
"n 	c #78AA57",
"o 	c #D2F7AA",
"p 	c #B3DE90",
"q 	c #25630D",
"r 	c #DACE57",
"s 	c #FFEA6B",
"t 	c #FEEF70",
"u 	c #FBF275",
"v 	c #8BAA44",
"w 	c #75AA5A",
"x 	c #C8F0A3",
"y 	c #2E6E1A",
"z 	c #ACB244",
"A 	c #FFE96A",
"B 	c #FFEE6F",
"C 	c #FCF174",
"D 	c #F8F37A",
"E 	c #F3F581",
"F 	c #86AB4A",
"G 	c #22630F",
"H 	c #6BA150",
"I 	c #EDE66C",
"J 	c #6B9535",
"K 	c #95C576",
"L 	c #3A7725",
"M 	c #A1B74B",
"N 	c #E6EF7F",
"O 	c #487E26",
"P 	c #1E600C",
"Q 	c #86B869",
"R 	c #9AC87A",
"S 	c #2E6A13",
"T 	c #DBE576",
"U 	c #ECF68B",
"V 	c #DCF08C",
"W 	c #7BA84F",
"X 	c #32701C",
"Y 	c #437E2C",
"Z 	c #A2CF81",
"` 	c #CBF2A5",
" .	c #367421",
"..	c #3E771F",
"+.	c #C6DE7A",
"@.	c #E1F797",
"#.	c #DCF79E",
"$.	c #D3F7A9",
"%.	c #518B39",
"&.	c #77A64F",
"*.	c #B0D783",
"=.	c #C6EEA2",
"-.	c #33721F",
"          . . . .               ",
"      . + @ # $ % & *           ",
"    . = - ; > , ' ) ! ~         ",
"    { ] ^ / . ( _ : < [ }       ",
"  . | 1 2       . 3 4 5 6 .     ",
"  7 8 . .     . . . 9 0 a . . . ",
"  b c . d .   . e f g h h h i . ",
"  j . k l m .   . n o h h p .   ",
"  q r s t u v .   . w h x . y   ",
". z A B C D E F .   . w . G H   ",
". . . I $ J . . .     . . K L   ",
"    . M , N O .       P Q R .   ",
"      S T U V W X . Y Z `  .    ",
"        ..+.@.#.5 $.h x %..     ",
"          * &.*.0 =.R -..       ",
"              . . . .           "};
