/* XPM */
static const char * menu_radio_unchecked_xpm[] = {
"16 16 34 1",
" 	c None",
".	c #11A118",
"+	c #10A118",
"@	c #14A71F",
"#	c #14A61E",
"$	c #14A61F",
"%	c #17AB25",
"&	c #18AB24",
"*	c #18AB25",
"=	c #1BB12A",
"-	c #1BB02B",
";	c #1AB02A",
">	c #1FB530",
",	c #1EB531",
"'	c #1EB631",
")	c #1EB530",
"!	c #22BA37",
"~	c #21BA37",
"{	c #21BA36",
"]	c #22BA36",
"^	c #25BF3D",
"/	c #25BF3C",
"(	c #28C442",
"_	c #2CC948",
":	c #2FCE4E",
"<	c #2FCE4F",
"[	c #32D254",
"}	c #32D354",
"|	c #36D75A",
"1	c #35D85A",
"2	c #39DC60",
"3	c #39DD60",
"4	c #3CE266",
"5	c #3CE166",
"                ",
"      ...+      ",
"     @#  #$     ",
"     %    &*    ",
"     =     -;   ",
"  >,')      ),  ",
" !~          {] ",
" ^            / ",
" (            ( ",
" __          __ ",
"  :<::      ::  ",
"     [     [}   ",
"     |    11    ",
"     23  32     ",
"      4455      ",
"                "};
