/* XPM */
static const char * menu_check_unchecked_xpm[] = {
"16 16 2 1",
" 	c None",
".	c #777777",
"                ",
"  ............  ",
" ...        ... ",
" ..          .. ",
" .            . ",
" .            . ",
" .            . ",
" .            . ",
" .            . ",
" .            . ",
" .            . ",
" .            . ",
" ..          .. ",
" ...        ... ",
"  ............  ",
"                "};
