/* XPM */
static const char * menu_check_checked_xpm[] = {
"16 16 58 1",
" 	c None",
".	c #777777",
"+	c #747C75",
"@	c #757C75",
"#	c #6C8E71",
"$	c #73AE73",
"%	c #6EA16F",
"&	c #747D75",
"*	c #73AD74",
"=	c #76C36E",
"-	c #69AD68",
";	c #738375",
">	c #6FA672",
",	c #72BD6B",
"'	c #65B65E",
")	c #69976D",
"!	c #6CB06A",
"~	c #60B558",
"{	c #65A266",
"]	c #6AA66C",
"^	c #5CB354",
"/	c #5FA45E",
"(	c #6B9F6F",
"_	c #5BB054",
":	c #54A64F",
"<	c #689F6C",
"[	c #6CA171",
"}	c #7DB67D",
"|	c #70A773",
"1	c #6B9E71",
"2	c #5DAA5A",
"3	c #4AA642",
"4	c #5D9E5E",
"5	c #6EA472",
"6	c #8FD388",
"7	c #80C779",
"8	c #6CA86D",
"9	c #60A35F",
"0	c #46A43D",
"a	c #4E9E4B",
"b	c #6FA771",
"c	c #6FBD68",
"d	c #61B459",
"e	c #5FA35F",
"f	c #4AA044",
"g	c #3A9B32",
"h	c #6A9E6E",
"i	c #68A16B",
"j	c #52AA49",
"k	c #40A137",
"l	c #339929",
"m	c #599C5A",
"n	c #659E68",
"o	c #3C9936",
"p	c #3D9637",
"q	c #6A9F6F",
"r	c #649D68",
"s	c #639D67",
"                ",
"  ..........+@  ",
" ...       #$%& ",
" ..        *=-; ",
" .        >,'). ",
" .        !~{ . ",
" .       ]^/  . ",
" .      (_:<  . ",
" .[}|  1234   . ",
" .5678 90a    . ",
" . bcdefgh    . ",
" .  ijklm     . ",
" ..  nopq    .. ",
" ...  rs    ... ",
"  ............  ",
"                "};
